<?xml version="1.0" encoding="UTF-8"?>
<svg version="1.1" xmlns="http://www.w3.org/2000/svg" width="498" height="501">
<path d="M0 0 C0.99 0.66 1.98 1.32 3 2 C2.83203125 4.30078125 2.83203125 4.30078125 2 7 C-0.36328125 8.73046875 -0.36328125 8.73046875 -3.3125 10.1875 C-4.27800781 10.67605469 -5.24351562 11.16460937 -6.23828125 11.66796875 C-7.14964844 12.10753906 -8.06101562 12.54710937 -9 13 C-10.33377542 13.66578176 -11.66730038 14.33206741 -13 15 C-13 15.66 -13 16.32 -13 17 C-12.01 17.66 -11.02 18.32 -10 19 C-10 19.66 -10 20.32 -10 21 C-9.4225 21.268125 -8.845 21.53625 -8.25 21.8125 C-5.94449957 23.02929189 -3.97943808 24.30333879 -2 26 C-2 26.66 -2 27.32 -2 28 C-1.34 28 -0.68 28 0 28 C2.125 29.875 2.125 29.875 4 32 C4 32.66 4 33.32 4 34 C4.556875 34.24105469 5.11375 34.48210937 5.6875 34.73046875 C8.49657342 36.2726121 10.62698949 38.16015053 13 40.3125 C13.845625 41.07175781 14.69125 41.83101562 15.5625 42.61328125 C17.93931502 44.94057929 19.98139525 47.35992666 22 50 C21.505 50.99 21.505 50.99 21 52 C22.03570381 51.99214478 22.03570381 51.99214478 23.09233093 51.98413086 C30.27912095 51.93744348 37.46431143 51.94644648 44.65112305 51.98779297 C47.33349348 52.00037482 50.0147347 51.99322455 52.69702148 51.96923828 C56.55301799 51.94211856 60.40583594 51.96606664 64.26171875 52 C65.46084396 51.9805835 66.65996918 51.96116699 67.89543152 51.94116211 C76.02966388 52.0820798 76.02966388 52.0820798 78.8230896 54.72460938 C80.11795204 56.77349278 81.07113334 58.76558756 82 61 C82.69394783 62.17842659 83.40452222 63.34743524 84.140625 64.5 C88.42834594 71.59525303 92.57879645 78.75210598 96.61083984 85.99560547 C99.62313353 91.38609514 102.77014863 96.68670876 105.99414062 101.953125 C112 111.81910394 112 111.81910394 112 115 C112.73863281 115.06574219 113.47726562 115.13148438 114.23828125 115.19921875 C117.85341615 116.24745447 118.93592581 117.83798322 121.1875 120.8125 C121.86167969 121.68519531 122.53585937 122.55789063 123.23046875 123.45703125 C125.95179048 127.36780486 127 129.13975749 127 134 C128.32 134 129.64 134 131 134 C132.61572266 135.52880859 132.61572266 135.52880859 134.1640625 137.6484375 C134.72867188 138.40640625 135.29328125 139.164375 135.875 139.9453125 C136.4525 140.74710938 137.03 141.54890625 137.625 142.375 C138.78287366 143.94603562 139.94168606 145.51637993 141.1015625 147.0859375 C141.61025879 147.7876709 142.11895508 148.4894043 142.64306641 149.21240234 C144.02053005 151.11098996 144.02053005 151.11098996 146 153 C146.125 155.625 146.125 155.625 146 158 C144.35 158.33 142.7 158.66 141 159 C138 155.25 138 155.25 138 153 C137.34 153 136.68 153 136 153 C134.66796875 151.49609375 134.66796875 151.49609375 133.1875 149.4375 C132.65898437 148.70789063 132.13046875 147.97828125 131.5859375 147.2265625 C131.06257812 146.49179687 130.53921875 145.75703125 130 145 C129.53851563 144.36835938 129.07703125 143.73671875 128.6015625 143.0859375 C126.82549257 140.64249584 125.14084797 138.24831579 123.6484375 135.6171875 C121.18857075 131.71171186 118.01525563 128.56008852 114.86328125 125.20703125 C113 123 113 123 113 121 C112.34 121 111.68 121 111 121 C110.77054688 121.82371094 110.54109375 122.64742188 110.3046875 123.49609375 C108.725977 127.73592404 106.54122747 131.25604488 104.125 135.0625 C99.86366875 141.89528743 95.77777813 148.80382187 91.8125 155.8125 C79.54361568 177.45638432 79.54361568 177.45638432 77 180 C75.31816052 180.23287008 73.6287584 180.41264166 71.9375 180.5625 C71.01839844 180.64628906 70.09929687 180.73007812 69.15234375 180.81640625 C68.44207031 180.87699219 67.73179687 180.93757812 67 181 C67.845625 181.66 68.69125 182.32 69.5625 183 C72.84880472 185.72183356 75.50208664 188.82206218 78.25390625 192.0703125 C79.8837167 193.87149004 81.53981973 195.36578604 83.4375 196.875 C84.283125 197.57625 85.12875 198.2775 86 199 C86 199.66 86 200.32 86 201 C86.58136719 201.25007812 87.16273438 201.50015625 87.76171875 201.7578125 C90.29303271 203.16262548 91.84875917 204.75527975 93.8125 206.875 C97.29173259 210.46520248 100.54234293 212.77117147 105 215 C105 217.1875 105 217.1875 104 220 C101.56329917 222.05881675 98.79725449 223.48556285 96 225 C95.08734375 225.52078125 94.1746875 226.0415625 93.234375 226.578125 C88.59734871 229.18803597 84.17014245 231.6026642 79 233 C77 231 77 231 76.94140625 229.1328125 C78.61238507 225.76619097 81.72709079 224.54861273 84.9375 222.875 C89.7791773 220.38391717 89.7791773 220.38391717 94 217 C90.93260859 212.59896015 87.27802272 209.86396339 82.92578125 206.84375 C80.60415403 204.62101563 80.31780313 203.14571231 80 200 C79.43796875 199.90589844 78.8759375 199.81179688 78.296875 199.71484375 C75.43468169 198.8240591 73.60229539 197.41128118 71.25 195.5625 C70.05117188 194.63630859 70.05117188 194.63630859 68.828125 193.69140625 C68.22484375 193.13324219 67.6215625 192.57507813 67 192 C67 191.34 67 190.68 67 190 C66.443125 189.79375 65.88625 189.5875 65.3125 189.375 C62.02987629 187.42316968 60.29326754 185.05769006 58 182 C58 181.34 58 180.68 58 180 C57.31761765 180.00666183 56.63523529 180.01332367 55.93217468 180.02018738 C48.8435842 180.08644829 41.75508139 180.1317622 34.66625977 180.16479492 C32.01908801 180.1799012 29.37194136 180.2003873 26.72485352 180.22631836 C22.92457899 180.26261991 19.12463474 180.27970803 15.32421875 180.29296875 C13.54285774 180.31619453 13.54285774 180.31619453 11.72550964 180.33988953 C10.62459488 180.34011612 9.52368011 180.34034271 8.3894043 180.34057617 C6.93379341 180.35056892 6.93379341 180.35056892 5.44877625 180.36076355 C2.57176958 179.93691137 1.74483905 179.2728907 0 177 C-0.78171972 175.56914906 -1.50595656 174.10618827 -2.1875 172.625 C-4.09187507 168.69827973 -6.17614255 165.00621026 -8.5 161.3125 C-12.990833 154.14082753 -17.12470222 146.78122084 -21.25585938 139.39770508 C-23.86883316 134.73584962 -26.50257495 130.08769252 -29.2109375 125.48046875 C-29.6754834 124.68922607 -30.1400293 123.8979834 -30.61865234 123.08276367 C-31.93257088 121.10166804 -33.26156882 119.60881385 -35 118 C-50.59268762 102.82873637 -50.59268762 102.82873637 -51.3125 96.0625 C-51.209375 95.381875 -51.10625 94.70125 -51 94 C-51.804375 93.731875 -52.60875 93.46375 -53.4375 93.1875 C-54.283125 92.795625 -55.12875 92.40375 -56 92 C-56.33 91.01 -56.66 90.02 -57 89 C-57.66 89 -58.32 89 -59 89 C-62.74848257 84.9555846 -65.33048869 80.80512035 -68 76 C-68.556875 75.2575 -69.11375 74.515 -69.6875 73.75 C-71 72 -71 72 -72 69 C-73.485 68.505 -73.485 68.505 -75 68 C-76.60546875 66.00390625 -76.60546875 66.00390625 -78.1875 63.5625 C-78.71730469 62.75941406 -79.24710938 61.95632812 -79.79296875 61.12890625 C-81 59 -81 59 -81 57 C-81.66 57 -82.32 57 -83 57 C-84.76171875 54.953125 -84.76171875 54.953125 -86.6875 52.25 C-87.33074219 51.36828125 -87.97398438 50.4865625 -88.63671875 49.578125 C-90 47 -90 47 -89.70703125 44.671875 C-89.35705078 43.84429687 -89.35705078 43.84429687 -89 43 C-87.02 42.505 -87.02 42.505 -85 42 C-83.66094733 43.7873962 -82.32890934 45.58004953 -81 47.375 C-79.88625 48.87160156 -79.88625 48.87160156 -78.75 50.3984375 C-77 53 -77 53 -77 55 C-76.34 55 -75.68 55 -75 55 C-73.4921875 56.828125 -73.4921875 56.828125 -71.875 59.25 C-71.33617188 60.03890625 -70.79734375 60.8278125 -70.2421875 61.640625 C-69 64 -69 64 -69 68 C-67.68 68 -66.36 68 -65 68 C-63.1583536 70.15906838 -61.61804049 72.21132319 -60.0625 74.5625 C-59.64548828 75.17158203 -59.22847656 75.78066406 -58.79882812 76.40820312 C-57.95385097 77.64236605 -57.11613809 78.88153291 -56.28564453 80.12548828 C-55.41105619 81.40066665 -54.50406132 82.65408369 -53.56982422 83.88623047 C-50 88.59528003 -50 88.59528003 -50 93 C-49.401875 93.0825 -48.80375 93.165 -48.1875 93.25 C-45.37067727 94.21576779 -44.52200868 95.48868567 -43 98 C-43 98.66 -43 99.32 -43 100 C-42.34 100 -41.68 100 -41 100 C-39.6043269 101.76494494 -38.28163478 103.58808217 -37 105.4375 C-34.54099616 109.32727075 -34.54099616 109.32727075 -31 112 C-30.75765625 111.32195312 -30.5153125 110.64390625 -30.265625 109.9453125 C-28.73605429 106.38575597 -26.77880775 103.16341521 -24.75 99.875 C-22.06433722 95.46589439 -19.4346209 91.05465596 -17 86.5 C-14.2779683 81.41887417 -11.32179407 76.50129627 -8.33178711 71.57543945 C-5.45913581 66.82270721 -2.77202937 61.9928423 -0.19140625 57.07421875 C1 55 1 55 3 53 C5.8203125 52.5859375 5.8203125 52.5859375 9.125 52.375 C10.22070312 52.30023438 11.31640625 52.22546875 12.4453125 52.1484375 C13.28835937 52.09945312 14.13140625 52.05046875 15 52 C10.63167127 47.37884195 6.11771758 43.44279554 0.91796875 39.7734375 C-1 38 -1 38 -1.88671875 35.4765625 C-3.44907228 32.00101115 -5.60004808 31.57112693 -9 30 C-11.65637774 27.75350844 -14.12705842 25.37301853 -16.6328125 22.9609375 C-18.89412853 21.08770211 -20.13893515 20.38235429 -23 20 C-23 18.68 -23 17.36 -23 16 C-23.66 16 -24.32 16 -25 16 C-25.495 13.525 -25.495 13.525 -26 11 C-21.375 8.875 -21.375 8.875 -18 10 C-15.96648082 9.19589425 -15.96648082 9.19589425 -13.875 7.875 C-13.08996094 7.41480469 -12.30492187 6.95460937 -11.49609375 6.48046875 C-10.67238281 5.99191406 -9.84867187 5.50335938 -9 5 C-7.31538443 4.05732673 -5.62801459 3.11955307 -3.9375 2.1875 C-3.18339844 1.76855469 -2.42929688 1.34960938 -1.65234375 0.91796875 C-1.10707031 0.61503906 -0.56179687 0.31210938 0 0 Z M13.4453125 74.58203125 C13.00960937 75.31808594 12.57390625 76.05414063 12.125 76.8125 C11.62355469 77.63492188 11.12210938 78.45734375 10.60546875 79.3046875 C9.81076172 80.63886719 9.81076172 80.63886719 9 82 C7.81446674 83.81378703 6.62692904 85.62626532 5.4375 87.4375 C2.76153652 91.65683715 0.43478236 95.93230124 -1.734375 100.4296875 C-4.00194589 105.03481603 -6.51554987 109.50920699 -9 114 C-8.14148438 114.36738281 -7.28296875 114.73476563 -6.3984375 115.11328125 C-2.42839337 117.31734023 0.26641872 119.92924629 3.375 123.1875 C4.19291016 124.02571289 4.19291016 124.02571289 5.02734375 124.88085938 C6.35856769 126.24711552 7.6802831 127.62262557 9 129 C12.93831009 125.4334478 15.22710206 120.96723828 17 116 C16.64662182 112.85556194 16.64662182 112.85556194 15 110 C11.32742679 101.3082434 10.3383641 92.59234337 13.75 83.625 C15.48140623 79.79117193 17.50717645 76.38311768 20 73 C16.32148863 72.5477681 16.32148863 72.5477681 13.4453125 74.58203125 Z M61 73 C61.72316406 74.10794922 61.72316406 74.10794922 62.4609375 75.23828125 C66.34497111 81.47651482 68.78567251 86.44228062 69.3203125 93.8203125 C69.54460937 94.53960937 69.76890625 95.25890625 70 96 C72.37798259 97.31161002 72.37798259 97.31161002 75 98 C76.34050052 98.65213539 77.67661368 99.31379969 79 100 C79 100.66 79 101.32 79 102 C79.99 102.33 80.98 102.66 82 103 C78.29657761 93.13047334 72.45476194 80.54350911 65 73 C63.68 73 62.36 73 61 73 Z M69 101 C68.81824219 101.58007812 68.63648438 102.16015625 68.44921875 102.7578125 C68.19785156 103.53898437 67.94648438 104.32015625 67.6875 105.125 C67.44386719 105.89070313 67.20023438 106.65640625 66.94921875 107.4453125 C66 110 66 110 64.10546875 112.7734375 C62.71039516 115.78740801 62.71039516 115.78740801 63.64819336 117.97314453 C64.86596121 120.23668648 66.20015908 122.36085889 67.625 124.5 C68.55622499 125.96777567 69.48594314 127.43650857 70.4140625 128.90625 C70.86040039 129.59976563 71.30673828 130.29328125 71.76660156 131.0078125 C73.36289438 133.58614769 74.7074349 136.25872099 76 139 C76.66 139 77.32 139 78 139 C79.38708748 137.00343469 80.64408132 135.02761585 81.875 132.9375 C82.40963867 132.04647583 82.40963867 132.04647583 82.95507812 131.13745117 C83.9770369 129.42912658 84.98876875 127.71469647 86 126 C86.69996094 124.83597656 86.69996094 124.83597656 87.4140625 123.6484375 C89.38074476 120.53653502 89.38074476 120.53653502 90 117 C88.97519531 116.46890625 87.95039063 115.9378125 86.89453125 115.390625 C82.83607474 113.07267502 79.86303318 110.14047987 76.6875 106.75 C74.82764133 104.78262183 72.94977184 102.88172214 71 101 C70.34 101 69.68 101 69 101 Z M20 117 C22.20403286 125.34826444 25.39291395 133.23816508 28.6706543 141.20654297 C29.56852044 143.38963824 30.45960469 145.5754082 31.34960938 147.76171875 C31.92148755 149.16161668 32.49373969 150.5613619 33.06640625 151.9609375 C33.33103165 152.60888275 33.59565704 153.256828 33.86830139 153.92440796 C35.13929075 157.01050862 36.45165597 160.04217688 38 163 C39.65 163 41.3 163 43 163 C43.28117676 162.3201001 43.56235352 161.6402002 43.85205078 160.93969727 C46.03916456 155.66914753 48.24663408 150.4085201 50.50140381 145.16659546 C51.66837467 142.45162973 52.82757772 139.73337523 53.98632812 137.01489258 C54.58626607 135.61245523 55.18953952 134.21144072 55.79589844 132.81176758 C56.68278236 130.76232743 57.55736896 128.70801775 58.4296875 126.65234375 C58.94772949 125.44570068 59.46577148 124.23905762 59.99951172 122.99584961 C61.33341505 119.99949571 61.33341505 119.99949571 60 117 C60 117.66 60 118.32 60 119 C59.37996094 119.24878906 58.75992188 119.49757813 58.12109375 119.75390625 C55.57137569 121.25180691 55.12878981 122.22018081 54.0625 124.9375 C53.5675 126.14986328 53.5675 126.14986328 53.0625 127.38671875 C52.5365625 128.68029297 52.5365625 128.68029297 52 130 C51.19381646 131.75291881 50.38108292 133.50283708 49.5625 135.25 C47.12705548 140.54053487 45.13715715 145.95106183 43.2109375 151.4453125 C42.61152344 152.70988281 42.61152344 152.70988281 42 154 C40.515 154.495 40.515 154.495 39 155 C38.773125 154.236875 38.54625 153.47375 38.3125 152.6875 C37.25294445 149.71065346 36.08796439 146.97731638 34.75 144.125 C33.17967174 140.76265007 31.75519972 137.40165653 30.515625 133.90625 C30.26329102 133.19839355 30.01095703 132.49053711 29.75097656 131.76123047 C29.26143952 130.36869173 28.7836146 128.97196315 28.31933594 127.57080078 C26.70157592 122.98259674 24.69750364 120.1501758 21 117 C20.67 117 20.34 117 20 117 Z M-7 122 C-5.45614871 126.14032846 -3.48971062 129.93553053 -1.375 133.8125 C-1.05015625 134.40998047 -0.7253125 135.00746094 -0.390625 135.62304688 C0.40379151 137.08337135 1.20155376 138.54187491 2 140 C2.99 140 3.98 140 5 140 C5.66 138.02 6.32 136.04 7 134 C5.04417252 132.18472893 3.08550123 130.37271109 1.125 128.5625 C0.56941406 128.04623047 0.01382813 127.52996094 -0.55859375 126.99804688 C-3.54749315 124.17895264 -3.54749315 124.17895264 -7 122 Z " fill="#DADADA" transform="translate(195,142)"/>
<path d="M0 0 C0.86625 0.66 1.7325 1.32 2.625 2 C2.295 3.32 1.965 4.64 1.625 6 C-1.49790635 5.51421457 -4.37080359 5.0013988 -7.375 4 C-7.230625 4.70125 -7.08625 5.4025 -6.9375 6.125 C-4.79397615 17.08078855 -4.15502293 26.49321971 -10.47265625 36.234375 C-16.24788514 44.24859009 -16.24788514 44.24859009 -20.375 47 C-20.66117187 47.64453125 -20.94734375 48.2890625 -21.2421875 48.953125 C-22.80056196 51.76894644 -24.6111067 52.41666463 -27.5 53.75 C-28.41007812 54.17796875 -29.32015625 54.6059375 -30.2578125 55.046875 C-30.95648438 55.36140625 -31.65515625 55.6759375 -32.375 56 C-31.385 57.485 -31.385 57.485 -30.375 59 C-30.375 59.99 -30.375 60.98 -30.375 62 C-29.58480469 61.89945312 -28.79460937 61.79890625 -27.98046875 61.6953125 C-22.84184773 62.12956216 -19.14518869 64.39888524 -14.6875 66.875 C-13.83349609 67.33519531 -12.97949219 67.79539062 -12.09960938 68.26953125 C-8.76385319 70.07760019 -5.53418156 71.89387896 -2.375 74 C-2.375 74.99 -2.375 75.98 -2.375 77 C-1.364375 77.0825 -0.35375 77.165 0.6875 77.25 C4.9220638 77.88139619 8.05471735 79.73560452 11.625 82 C12.70136719 82.639375 13.77773438 83.27875 14.88671875 83.9375 C24.35810382 89.59965574 24.35810382 89.59965574 26.625 93 C28.2869007 93.35633546 29.95488352 93.68440558 31.625 94 C34.10722825 95.13871197 36.51878543 96.30456915 38.9375 97.5625 C39.58267578 97.89185547 40.22785156 98.22121094 40.89257812 98.56054688 C42.47285228 99.36824255 44.04932105 100.18337613 45.625 101 C45.32207031 100.47277344 45.01914062 99.94554687 44.70703125 99.40234375 C40.46500434 89.98412517 41.10293489 79.48344033 44.625 70 C48.80295307 61.38539708 55.80936622 55.59821787 64.625 52 C67.60666509 51.21897076 70.6005124 50.58847146 73.625 50 C72.55378906 49.37351562 71.48257813 48.74703125 70.37890625 48.1015625 C68.9816101 47.27631376 67.58448341 46.45077804 66.1875 45.625 C65.48044922 45.2125 64.77339844 44.8 64.04492188 44.375 C63.37138672 43.97539063 62.69785156 43.57578125 62.00390625 43.1640625 C61.3807251 42.79748535 60.75754395 42.4309082 60.11547852 42.05322266 C58.625 41 58.625 41 57.625 39 C55.66848075 38.21208048 53.6832939 37.49484261 51.6875 36.8125 C46.03807518 34.72655853 41.52643645 32.18642131 36.74609375 28.55078125 C34.7648454 27.10224424 32.81436183 26.08773791 30.625 25 C29.965 24.34 29.305 23.68 28.625 23 C27.16228049 22.39601993 25.67948359 21.8400654 24.1875 21.3125 C16.35459175 18.28150507 8.86157795 13.64315133 2.625 8 C2.625 7.01 2.625 6.02 2.625 5 C6.43112893 3.93702706 8.13858254 3.77187866 11.7734375 5.4765625 C12.83820313 6.18554688 13.90296875 6.89453125 15 7.625 C16.13664181 8.37121096 17.2733605 9.11730483 18.41015625 9.86328125 C19.47105469 10.56839844 20.53195312 11.27351563 21.625 12 C23.22618853 12.94257745 24.82977799 13.88111024 26.4375 14.8125 C28.0153125 15.8953125 28.0153125 15.8953125 29.625 17 C29.625 17.99 29.625 18.98 29.625 20 C30.50671875 19.94585937 31.3884375 19.89171875 32.296875 19.8359375 C35.96537171 20.01677889 37.73163815 20.78980371 40.875 22.625 C41.81601562 23.17027344 42.75703125 23.71554688 43.7265625 24.27734375 C44.68304688 24.84582031 45.63953125 25.41429687 46.625 26 C47.58148438 26.53753906 48.53796875 27.07507813 49.5234375 27.62890625 C56.49668142 31.61504425 56.49668142 31.61504425 57.625 35 C58.34139648 34.94424805 59.05779297 34.88849609 59.79589844 34.83105469 C65.11942873 35.14895967 69.3916147 38.55881628 73.875 41.25 C74.89335937 41.83652344 75.91171875 42.42304687 76.9609375 43.02734375 C78.41113281 43.88779297 78.41113281 43.88779297 79.890625 44.765625 C80.77524414 45.28930664 81.65986328 45.81298828 82.57128906 46.35253906 C84.8643121 48.19197314 85.29908315 49.1291248 85.625 52 C86.40875 51.814375 87.1925 51.62875 88 51.4375 C90.625 51 90.625 51 92.625 52 C92.625 53.32 92.625 54.64 92.625 56 C93.24375 56.309375 93.8625 56.61875 94.5 56.9375 C95.875 57.625 97.25 58.3125 98.625 59 C98.625 59.66 98.625 60.32 98.625 61 C99.285 61 99.945 61 100.625 61 C100.625 61.66 100.625 62.32 100.625 63 C101.285 63 101.945 63 102.625 63 C108.95860064 72.39120095 110.5742072 82.62364254 108.54296875 93.703125 C106.1555368 102.27756144 101.0606211 109.11632551 93.625 114 C85.41083867 118.45043789 76.77532738 118.90869302 67.625 118 C65.94032882 117.38023776 64.26986982 116.71876665 62.625 116 C59.95927985 115.50686503 57.32684283 115.27476368 54.625 115 C53.965 113.35 53.305 111.7 52.625 110 C51.51125 110.309375 51.51125 110.309375 50.375 110.625 C47.30169159 111.04408751 46.19713134 110.61949011 43.625 109 C43.625 108.34 43.625 107.68 43.625 107 C42.84382813 106.86271484 42.84382813 106.86271484 42.046875 106.72265625 C38.74941749 105.73873748 35.86826632 104.09859834 32.875 102.4375 C32.27300781 102.10814453 31.67101562 101.77878906 31.05078125 101.43945312 C29.57329497 100.6303535 28.09883964 99.81572338 26.625 99 C26.625 98.34 26.625 97.68 26.625 97 C25.965 96.9175 25.305 96.835 24.625 96.75 C20.63460837 95.75240209 17.23950357 93.92833317 13.625 92 C13.625 91.34 13.625 90.68 13.625 90 C12.80644531 89.7628125 11.98789062 89.525625 11.14453125 89.28125 C6.92783517 87.74620414 3.20635433 85.71121496 -0.6875 83.5 C-1.46424072 83.06292725 -2.24098145 82.62585449 -3.04125977 82.17553711 C-5.49058294 80.79184621 -7.93373084 79.3978469 -10.375 78 C-11.18227539 77.53867676 -11.98955078 77.07735352 -12.82128906 76.60205078 C-15.15613593 75.26304502 -17.48552317 73.91512941 -19.8125 72.5625 C-20.52768799 72.15 -21.24287598 71.7375 -21.97973633 71.3125 C-25.15933883 69.44608604 -27.79651579 67.60839909 -30.375 65 C-32.30182301 64.01133519 -32.30182301 64.01133519 -34.375 63.3125 C-35.055625 63.06113281 -35.73625 62.80976563 -36.4375 62.55078125 C-40.29733605 61.45352947 -42.85973745 62.33025029 -46.375 64 C-46.82875 64.47308594 -47.2825 64.94617188 -47.75 65.43359375 C-49.65659802 67.27144425 -51.47280583 68.1424949 -53.875 69.25 C-58.86453044 71.64234084 -63.36607418 74.5245099 -67.9296875 77.64453125 C-70.375 79 -70.375 79 -74.375 79 C-74.705 77.35 -75.035 75.7 -75.375 74 C-72.9089399 72.26498539 -70.44008444 70.53440657 -67.96484375 68.8125 C-66.06386941 67.48210469 -64.18236378 66.12377747 -62.3125 64.75 C-58.20083442 62.3004971 -53.24883398 60 -48.375 60 C-48.32989639 57.62102997 -48.32989639 57.62102997 -49.375 55 C-51.6058475 53.32150176 -53.84905906 52.24000737 -56.375 51 C-56.375 50.01 -56.375 49.02 -56.375 48 C-58.02321244 46.96986723 -59.69003702 45.96885372 -61.375 45 C-61.375 44.34 -61.375 43.68 -61.375 43 C-62.035 43 -62.695 43 -63.375 43 C-65.03125 41.0234375 -65.03125 41.0234375 -66.875 38.375 C-67.4834375 37.51648438 -68.091875 36.65796875 -68.71875 35.7734375 C-72.25590504 29.85037128 -72.66778383 24.71600013 -72.5625 18 C-72.56185547 17.21882813 -72.56121094 16.43765625 -72.56054688 15.6328125 C-72.52785884 11.31799174 -72.22585228 7.24745457 -71.375 3 C-72.2825 3.495 -73.19 3.99 -74.125 4.5 C-77.375 6 -77.375 6 -81.375 6 C-81.56707031 6.5775 -81.75914062 7.155 -81.95703125 7.75 C-83.96541295 10.9368536 -86.82547954 12.27538556 -90.0625 14 C-90.66255859 14.33 -91.26261719 14.66 -91.88085938 15 C-93.09386051 15.66708548 -94.30978903 16.32887517 -95.52856445 16.98535156 C-97.42723825 18.02870583 -99.28525361 19.12914205 -101.1484375 20.234375 C-104.3276704 21.97410051 -105.84070479 22.42839942 -109.375 22 C-109.57867187 22.5775 -109.78234375 23.155 -109.9921875 23.75 C-113.00264584 28.64837289 -119.45873125 31.18248926 -124.375 34 C-125.61056641 34.73089844 -125.61056641 34.73089844 -126.87109375 35.4765625 C-128.9375 36.625 -128.9375 36.625 -132.375 38 C-134.58984375 37.0859375 -134.58984375 37.0859375 -136.375 36 C-136.02515937 33.28425701 -135.66216764 32.23846824 -133.52075195 30.46020508 C-132.72628662 29.98478271 -131.93182129 29.50936035 -131.11328125 29.01953125 C-130.24123047 28.49552734 -129.36917969 27.97152344 -128.47070312 27.43164062 C-127.55224609 26.89732422 -126.63378906 26.36300781 -125.6875 25.8125 C-124.78837891 25.26658203 -123.88925781 24.72066406 -122.96289062 24.15820312 C-118.47211628 21.49932206 -114.70865217 19.3095818 -109.375 19 C-109.045 18.01 -108.715 17.02 -108.375 16 C-106.00390625 14.38671875 -106.00390625 14.38671875 -102.9375 12.6875 C-98.04085716 9.94444621 -93.26181727 7.08608502 -88.53125 4.06640625 C-86.375 3 -86.375 3 -82.375 3 C-80.68490392 1.35709683 -79.0229155 -0.3147908 -77.375 -2 C-74.74230993 -3.89635188 -71.9871015 -5.55027721 -69.1875 -7.1875 C-68.43082031 -7.6309375 -67.67414063 -8.074375 -66.89453125 -8.53125 C-61.42117797 -11.63344167 -56.64658306 -13.34042175 -50.375 -14 C-48.85088014 -14.38298396 -47.32994181 -14.77885786 -45.8125 -15.1875 C-29.54907162 -18.72918736 -12.82043664 -9.05427216 0 0 Z M-55.375 7 C-58.66017411 11.81825536 -59.23973732 16.33116645 -58.375 22 C-56.33153012 28.13040965 -52.78685952 32.95288429 -47.1875 36.3125 C-40.62042468 37.91778508 -34.15249796 37.90368784 -28.203125 34.4453125 C-23.76755236 30.93855636 -20.84458312 26.80197531 -19.90234375 21.1796875 C-19.69414244 14.53535013 -20.8592801 9.93500655 -25.25 4.8125 C-35.32212348 -3.77842885 -46.07495847 -2.08867695 -55.375 7 Z M61.375 71.1875 C57.51935169 77.38407765 56.00459814 82.33734393 57.05078125 89.671875 C58.42449941 95.24150781 61.92162863 98.93733957 66.625 102 C73.0707741 104.55398597 78.12274121 104.24038332 84.625 101.9375 C85.285 101.628125 85.945 101.31875 86.625 101 C86.625 100.34 86.625 99.68 86.625 99 C87.223125 98.79375 87.82125 98.5875 88.4375 98.375 C92.04725199 96.10601303 93.09362589 92.98506186 94.171875 88.95703125 C95.30615609 82.54834306 93.68204789 77.6555386 90.625 72 C87.997895 68.61018709 85.63866259 67.37263785 81.625 66 C73.8836478 65.12081988 67.16198042 65.56126904 61.375 71.1875 Z " fill="#DADADA" transform="translate(274.375,66)"/>
<path d="M0 0 C4.64833324 0.34012194 7.21749966 1.70102451 10.859375 4.5390625 C14.48572084 7.01397736 18.52541293 8.68197775 22.5234375 10.47265625 C25 12 25 12 25.8515625 14.18359375 C25.90054688 14.78300781 25.94953125 15.38242187 26 16 C26.86625 15.7215625 26.86625 15.7215625 27.75 15.4375 C30.29385125 14.94286226 31.51346839 15.36060616 34 16 C35.74690919 16.2143934 37.4974023 16.40107653 39.25 16.5625 C40.14203125 16.64628906 41.0340625 16.73007812 41.953125 16.81640625 C42.62859375 16.87699219 43.3040625 16.93757813 44 17 C44.04253906 16.40960938 44.08507812 15.81921875 44.12890625 15.2109375 C45.4577089 11.83828145 47.74747284 11.21070778 50.9375 9.625 C56.14314453 6.97922687 61.08468199 4.15416056 65.9765625 0.96875 C68 0 68 0 71 1 C71.9375 2.8125 71.9375 2.8125 72 5 C69.10463439 9.02833477 64.55262172 11.24251975 60 13 C59.01 13 58.02 13 57 13 C57 13.66 57 14.32 57 15 C55.37750059 15.83819158 53.75191503 16.6704116 52.125 17.5 C51.22007812 17.9640625 50.31515625 18.428125 49.3828125 18.90625 C47 20 47 20 45 20 C44.34 21.32 43.68 22.64 43 24 C44.36125 24.433125 44.36125 24.433125 45.75 24.875 C48.32202908 25.76531776 50.61346766 26.71494413 53 28 C53 29.65 53 31.3 53 33 C53.57621094 33.24234375 54.15242188 33.4846875 54.74609375 33.734375 C60.6673129 37.05928835 65.58551181 43.75073646 68 50 C70.24295398 59.28996541 69.5774392 68.20546196 66 77 C67.3303125 76.2265625 67.3303125 76.2265625 68.6875 75.4375 C72.20023331 73.9131063 73.44706507 73.85052105 77 75 C77.0234375 77.17578125 77.0234375 77.17578125 76 80 C73.415788 82.09201805 70.54409469 83.61109347 67.625 85.1875 C66.07534031 86.05566743 64.52585432 86.924145 62.9765625 87.79296875 C62.28643066 88.1696167 61.59629883 88.54626465 60.88525391 88.93432617 C59.21163304 89.8803706 57.59961682 90.93358878 56 92 C54.03556003 92.26192533 52.06968096 92.51799918 50.09765625 92.71484375 C47.76146104 92.97033589 47.76146104 92.97033589 44.6875 94.0625 C37.10382209 95.9905537 30.31328718 95.52306235 23.05078125 92.7109375 C20.79721802 91.83638571 20.79721802 91.83638571 17.4375 91.6875 C13.32284834 90.86456967 11.38819096 89.22747053 8.19140625 86.625 C5.04858363 84.29449339 1.6399569 82.72134221 -1.8984375 81.078125 C-4 80 -4 80 -6 78 C-5.625 75.375 -5.625 75.375 -5 73 C-1.28111761 73.50712033 1.73454239 74.11608215 5 76 C4.505 74.948125 4.01 73.89625 3.5 72.8125 C0.40002793 64.41736032 1.05213693 54.99083804 4.3984375 46.76953125 C7.68281536 41.08996076 12.36499485 36.58898382 17 32 C17.87269531 31.09378906 18.74539062 30.18757813 19.64453125 29.25390625 C22.23044846 26.77948796 24.79000134 25.53204482 28 24 C28.33 23.34 28.66 22.68 29 22 C28.41822998 21.7102832 27.83645996 21.42056641 27.23706055 21.12207031 C0.30728332 7.61456664 0.30728332 7.61456664 -2 3 C-1.34 2.01 -0.68 1.02 0 0 Z M20 50 C17.16333117 54.30075597 15.72598794 58.82211694 16 64 C17.47421451 70.42890537 20.95631399 74.95697589 26.3046875 78.734375 C31.47499336 81.16217079 36.4680073 81.11058944 42 80 C47.42290919 77.46873701 51.33055858 73.33888284 54 68 C55.55484654 61.67695739 54.9188034 56.84878996 52 51 C49.68726558 48.1028059 49.68726558 48.1028059 47 46 C46.43667969 45.4740625 45.87335938 44.948125 45.29296875 44.40625 C36.77320398 39.18118132 25.63788106 42.50815266 20 50 Z " fill="#DADADA" transform="translate(200,372)"/>
<path d="M0 0 C4.48379938 -0.40484049 4.48379938 -0.40484049 6.73828125 1.36328125 C7.25777344 2.00652344 7.77726562 2.64976562 8.3125 3.3125 C8.90160156 4.03695313 9.49070312 4.76140625 10.09765625 5.5078125 C18.59716181 16.64268836 18.59716181 16.64268836 21.61328125 21.7109375 C22.9212109 24.07518093 22.9212109 24.07518093 24.9375 25.9375 C27.39044253 28.39044253 29.07844303 31.11766454 31 34 C31.639375 34.639375 32.27875 35.27875 32.9375 35.9375 C38.07421292 41.07421292 40.79682887 45.87496936 41.875 53.0625 C41.99375488 53.79766846 42.11250977 54.53283691 42.23486328 55.2902832 C43.74691565 65.7405706 43.48464521 75.17138022 37.53515625 84.23046875 C37.04917969 84.87628906 36.56320312 85.52210938 36.0625 86.1875 C35.57910156 86.84105469 35.09570312 87.49460937 34.59765625 88.16796875 C32.88428082 90.1326951 31.18158764 91.57645897 29 93 C28.34 93 27.68 93 27 93 C26.92394531 93.60328125 26.84789062 94.2065625 26.76953125 94.828125 C25.72492911 97.77634221 24.41106294 98.27310781 21.6875 99.75 C17.60708551 102.04086128 13.77370894 104.50707196 9.9375 107.1875 C5.03480376 110.48970315 0.74585011 112.60987497 -5 114 C-5.99 113.505 -5.99 113.505 -7 113 C-6.94140625 110.76953125 -6.94140625 110.76953125 -6 108 C-3.63167683 106.32255973 -1.48996067 105.00240398 1.0625 103.6875 C1.72572266 103.32849609 2.38894531 102.96949219 3.07226562 102.59960938 C4.70666311 101.71774023 6.35231912 100.85679406 8 100 C8 99.67 8 99.34 8 99 C7.3709375 98.90203125 6.741875 98.8040625 6.09375 98.703125 C-3.25157979 97.07050715 -10.28627021 93.80445586 -17 87 C-17.66 86.01 -18.32 85.02 -19 84 C-20.010625 83.46375 -21.02125 82.9275 -22.0625 82.375 C-26.38885603 80.04057039 -29.45716879 76.7094704 -32.84375 73.1953125 C-35.41908775 70.57332008 -38.12572119 68.28468316 -41 66 C-40.34 64.68 -39.68 63.36 -39 62 C-34.2809009 62.46765847 -32.08167683 64.34934594 -28.6875 67.5625 C-27.80449219 68.38878906 -26.92148437 69.21507812 -26.01171875 70.06640625 C-25.34785156 70.70449219 -24.68398438 71.34257812 -24 72 C-24.05220703 70.76636719 -24.05220703 70.76636719 -24.10546875 69.5078125 C-24.28546746 62.08500865 -23.63666369 55.95263103 -21 49 C-22.56378292 49.76822734 -24.125966 50.53971164 -25.6875 51.3125 C-26.60144531 51.76367188 -27.51539063 52.21484375 -28.45703125 52.6796875 C-31.11680363 53.99937631 -31.11680363 53.99937631 -33.875 55.9375 C-34.57625 56.288125 -35.2775 56.63875 -36 57 C-38.3125 56.1875 -38.3125 56.1875 -40 55 C-39.64462661 52.35062769 -39.32997091 51.26867895 -37.22167969 49.55200195 C-36.46274414 49.11847412 -35.70380859 48.68494629 -34.921875 48.23828125 C-34.09042969 47.75939453 -33.25898438 47.28050781 -32.40234375 46.78710938 C-31.52707031 46.30048828 -30.65179688 45.81386719 -29.75 45.3125 C-28.89019531 44.81427734 -28.03039062 44.31605469 -27.14453125 43.80273438 C-23.03462083 41.46914117 -19.67819777 39.83036544 -15 39 C-14.01 38.505 -14.01 38.505 -13 38 C-12.34786708 35.97536745 -12.34786708 35.97536745 -12 34 C-11.39671875 33.93941406 -10.7934375 33.87882812 -10.171875 33.81640625 C-9.37265625 33.73261719 -8.5734375 33.64882813 -7.75 33.5625 C-6.96109375 33.48128906 -6.1721875 33.40007812 -5.359375 33.31640625 C-3.06518415 33.06364215 -3.06518415 33.06364215 -1.15039062 32.48632812 C1.22370062 31.94940831 3.33293367 31.88674957 5.765625 31.90234375 C6.65507812 31.90556641 7.54453125 31.90878906 8.4609375 31.91210938 C9.38132812 31.92048828 10.30171875 31.92886719 11.25 31.9375 C12.18585938 31.94201172 13.12171875 31.94652344 14.0859375 31.95117188 C16.39069041 31.96293082 18.69531227 31.97936574 21 32 C20.34 31.01 19.68 30.02 19 29 C19 27.68 19 26.36 19 25 C18.43796875 24.95746094 17.8759375 24.91492188 17.296875 24.87109375 C13.88571801 23.57740666 12.29838209 20.9349055 10.25 18.0625 C9.83878906 17.51142578 9.42757812 16.96035156 9.00390625 16.39257812 C6 12.28590895 6 12.28590895 6 10 C5.34 10 4.68 10 4 10 C1.1605948 6.32547562 0 4.73113419 0 0 Z M-5.3125 52.125 C-8.19972566 57.04397705 -10.39606957 61.89445451 -9.65625 67.6953125 C-8.10548324 73.34212626 -6.22583812 78.10207971 -0.98828125 81.18359375 C3.75378703 83.51034712 7.67264261 84.84116169 13 84 C19.4393676 81.65023077 23.89747562 79.20504876 27 73 C28.92570993 67.22287021 28.90187619 61.1900706 26.3125 55.625 C23.46588395 50.6534452 19.54524339 47.51233911 14 46 C6.24692434 45.01784454 0.44448713 46.83479561 -5.3125 52.125 Z " fill="#DADADA" transform="translate(340,302)"/>
<path d="M0 0 C0.57435791 0.3719751 1.14871582 0.7439502 1.74047852 1.12719727 C1.74047852 2.44719727 1.74047852 3.76719727 1.74047852 5.12719727 C-0.57743622 6.9129377 -2.76033673 8.3960202 -5.25952148 9.87719727 C-5.92725586 10.2884082 -6.59499023 10.69961914 -7.28295898 11.12329102 C-8.93396544 12.13748069 -10.59577628 13.13404324 -12.25952148 14.12719727 C-11.66526367 14.19036133 -11.07100586 14.25352539 -10.45874023 14.31860352 C-2.99790008 15.42090494 2.90790434 18.32747477 8.74047852 23.12719727 C10.05297852 25.35375977 10.05297852 25.35375977 10.74047852 27.12719727 C11.40047852 27.12719727 12.06047852 27.12719727 12.74047852 27.12719727 C13.23547852 28.11719727 13.23547852 28.11719727 13.74047852 29.12719727 C14.58610352 29.51907227 15.43172852 29.91094727 16.30297852 30.31469727 C22.64056959 33.65633619 27.41076871 38.46526906 31.74047852 44.12719727 C32.40047852 44.45719727 33.06047852 44.78719727 33.74047852 45.12719727 C33.41047852 46.44719727 33.08047852 47.76719727 32.74047852 49.12719727 C31.03735352 49.87329102 31.03735352 49.87329102 28.74047852 50.12719727 C26.38110352 48.47485352 26.38110352 48.47485352 23.99047852 46.18969727 C23.19125977 45.43817383 22.39204102 44.68665039 21.56860352 43.91235352 C20.96532227 43.32325195 20.36204102 42.73415039 19.74047852 42.12719727 C19.7030957 43.36856445 19.66571289 44.60993164 19.62719727 45.88891602 C19.56151901 47.53087238 19.49507231 49.17279813 19.42797852 50.81469727 C19.40541992 51.63131836 19.38286133 52.44793945 19.35961914 53.28930664 C19.14829891 58.03440633 18.71298233 61.21433031 15.74047852 65.12719727 C17.51225905 64.17061626 19.28286927 63.21186739 21.05297852 62.25219727 C22.03911133 61.71852539 23.02524414 61.18485352 24.04125977 60.63500977 C26.83634309 59.119976 26.83634309 59.119976 29.74047852 57.12719727 C32.42797852 57.50219727 32.42797852 57.50219727 34.74047852 58.12719727 C35.23547852 60.10719727 35.23547852 60.10719727 35.74047852 62.12719727 C34.74081055 62.65506836 34.74081055 62.65506836 33.72094727 63.19360352 C27.663131 66.43855964 21.9073432 69.90467266 16.24829102 73.80688477 C13.48421025 75.26211732 11.81674156 75.40284808 8.74047852 75.12719727 C8.57547852 75.76657227 8.41047852 76.40594727 8.24047852 77.06469727 C6.74047852 79.12719727 6.74047852 79.12719727 2.92797852 79.75219727 C2.2615332 79.78571289 1.59508789 79.81922852 0.90844727 79.85375977 C-1.34177865 80.03374289 -1.34177865 80.03374289 -3.56420898 81.13500977 C-7.00739644 82.40250196 -9.90900126 82.39216364 -13.57202148 82.37719727 C-14.23484131 82.37478027 -14.89766113 82.37236328 -15.58056641 82.36987305 C-19.23078133 82.31169873 -22.56019007 81.99635542 -26.07202148 81.00219727 C-27.12389648 80.71344727 -28.17577148 80.42469727 -29.25952148 80.12719727 C-30.24952148 81.11719727 -30.24952148 81.11719727 -31.25952148 82.12719727 C-33.09936523 82.12329102 -33.09936523 82.12329102 -35.25952148 81.12719727 C-36.96338346 79.16938013 -38.38896456 77.33025079 -39.82202148 75.18969727 C-40.21969727 74.60140137 -40.61737305 74.01310547 -41.02709961 73.40698242 C-47.27280016 63.83318602 -49.24361759 52.81759935 -47.69702148 41.50219727 C-45.91902223 33.18116077 -40.93669427 27.35299677 -34.77514648 21.73266602 C-33.14198299 20.16865807 -33.14198299 20.16865807 -32.23217773 17.95532227 C-31.91120117 17.35204102 -31.59022461 16.74875977 -31.25952148 16.12719727 C-30.33139648 15.98282227 -29.40327148 15.83844727 -28.44702148 15.68969727 C-24.88670946 15.06140691 -24.21392112 14.10796649 -21.82763672 11.59521484 C-18.65158253 8.62189804 -14.88785859 6.46258566 -11.19702148 4.18969727 C-10.39458008 3.67084961 -9.59213867 3.15200195 -8.76538086 2.61743164 C-7.9887207 2.13725586 -7.21206055 1.65708008 -6.41186523 1.16235352 C-5.71053467 0.72286377 -5.0092041 0.28337402 -4.28662109 -0.16943359 C-2.25952148 -0.87280273 -2.25952148 -0.87280273 0 0 Z M-27.25952148 34.12719727 C-27.58952148 35.11719727 -27.91952148 36.10719727 -28.25952148 37.12719727 C-28.91952148 37.12719727 -29.57952148 37.12719727 -30.25952148 37.12719727 C-33.47591071 43.29194328 -34.68941908 49.28461074 -32.67358398 56.11157227 C-30.10357009 61.44022494 -25.45303104 64.56048758 -20.25952148 67.12719727 C-15.19752678 68.82719174 -10.87512584 68.16296981 -6.07592773 66.06860352 C-0.87080196 63.37089317 2.75500143 59.70139763 4.74047852 54.12719727 C5.83293972 47.36276579 4.72717734 41.71893068 0.74047852 36.12719727 C-3.75320771 31.74873377 -7.86486095 30.0369294 -14.07202148 29.75219727 C-19.05452153 29.84916209 -23.28793821 31.0266662 -27.25952148 34.12719727 Z " fill="#DADADA" transform="translate(135.259521484375,101.872802734375)"/>
<path d="M0 0 C1.09622681 0.00580078 1.09622681 0.00580078 2.21459961 0.01171875 C9.22845202 0.12110841 16.02976387 1.02390421 22.9375 2.25 C23.4325 4.23 23.4325 4.23 23.9375 6.25 C24.9275 6.25 25.9175 6.25 26.9375 6.25 C28.95874023 7.22802734 28.95874023 7.22802734 31.24609375 8.5859375 C32.49036133 9.31683594 32.49036133 9.31683594 33.75976562 10.0625 C34.62279297 10.578125 35.48582031 11.09375 36.375 11.625 C38.08146412 12.63377249 39.78847618 13.64161876 41.49609375 14.6484375 C42.25204834 15.09880371 43.00800293 15.54916992 43.78686523 16.01318359 C45.80440266 17.17345656 47.84489898 18.23261921 49.9375 19.25 C49.5625 21.6875 49.5625 21.6875 48.9375 24.25 C48.2775 24.58 47.6175 24.91 46.9375 25.25 C44.51171875 24.10546875 44.51171875 24.10546875 41.625 22.4375 C38.12271386 20.42595503 34.7240316 18.66391435 30.9375 17.25 C31.4325 18.28125 31.9275 19.3125 32.4375 20.375 C35.7066274 29.21259322 34.8660844 39.12760068 31.26171875 47.71484375 C27.46777852 54.97816885 22.59495337 60.98658867 14.9375 64.25 C11.76820246 65.18817514 8.60986922 65.97634855 5.37890625 66.671875 C3.00381998 67.00863293 3.00381998 67.00863293 1.9375 68.25 C2.80761719 68.72179687 2.80761719 68.72179687 3.6953125 69.203125 C6.12113364 70.53212272 8.53185424 71.88484492 10.9375 73.25 C11.57558594 73.60707031 12.21367187 73.96414063 12.87109375 74.33203125 C14.5 75.3125 14.5 75.3125 16.9375 77.25 C16.9375 78.57 16.9375 79.89 16.9375 81.25 C11.67964995 81.72216614 8.37361285 80.24802028 4 77.5625 C3.38753418 77.19745361 2.77506836 76.83240723 2.14404297 76.45629883 C-6.34965652 71.34403623 -6.34965652 71.34403623 -10.0625 68.25 C-10.0625 67.26 -10.0625 66.27 -10.0625 65.25 C-12.5375 65.745 -12.5375 65.745 -15.0625 66.25 C-15.43761719 65.80269531 -15.81273438 65.35539062 -16.19921875 64.89453125 C-18.59300344 62.06660928 -20.97032242 59.33992935 -23.625 56.75 C-30.55315406 49.64420096 -33.11592298 43.42502928 -33.375 33.375 C-33.17379181 22.81157027 -30.3299363 15.96711798 -23.0625 8.25 C-16.14541824 1.89008986 -9.41659075 -0.1219681 0 0 Z M-17.0625 23.25 C-18.94515037 28.89795111 -19.02887842 35.72918181 -17.44921875 41.484375 C-14.57523807 47.20701495 -8.9233525 50.2963825 -3.0625 52.25 C3.12005149 52.86825515 7.6816602 51.36268182 12.9375 48.25 C16.70304526 44.68264134 18.77505977 40.27443172 19.9375 35.25 C19.73486719 29.47496503 18.34437473 23.84336382 14.32421875 19.51171875 C9.21072533 14.92380924 5.13276569 13.87900966 -1.6875 13.96875 C-8.09827897 14.72792119 -12.96968536 18.41303724 -17.0625 23.25 Z " fill="#DADADA" transform="translate(120.0625,333.75)"/>
<path d="M0 0 C0.5 2.1875 0.5 2.1875 0 5 C-1.76504787 6.48734701 -3.62444449 7.54242799 -5.63671875 8.671875 C-8.10451041 10.05873312 -10.41324646 11.59091217 -12.75 13.1875 C-19.58996874 17.84999667 -19.58996874 17.84999667 -23.9375 18.3125 C-27.14578929 18.74309719 -27.14578929 18.74309719 -29.21875 21.24609375 C-32.40984828 24.40581888 -35.70817368 26.49880056 -39.5625 28.75 C-40.22185547 29.14832031 -40.88121094 29.54664063 -41.56054688 29.95703125 C-47.63954146 33.5616612 -47.63954146 33.5616612 -51 34 C-51.99 33.34 -52.98 32.68 -54 32 C-54 31.34 -54 30.68 -54 30 C-54.66 30 -55.32 30 -56 30 C-56 29.01 -56 28.02 -56 27 C-54.99324219 26.92652344 -53.98648437 26.85304688 -52.94921875 26.77734375 C-48.49912216 26.14001555 -45.44614269 24.09455854 -41.8125 21.5625 C-32.11907583 15 -32.11907583 15 -27 15 C-27 14.34 -27 13.68 -27 13 C-25.23483259 11.84114221 -23.40933043 10.77371125 -21.5625 9.75 C-17.59192364 7.51918148 -13.82056569 5.22204385 -10.125 2.5625 C-6.64695148 0.17411331 -4.31259946 -0.66347684 0 0 Z " fill="#DCDCDC" transform="translate(332,414)"/>
<path d="M0 0 C6.50910254 0.23063749 10.94082235 2.90843248 16.375 6.3125 C17.19355469 6.79912109 18.01210937 7.28574219 18.85546875 7.78710938 C19.63277344 8.26599609 20.41007812 8.74488281 21.2109375 9.23828125 C21.91524902 9.67180908 22.61956055 10.10533691 23.34521484 10.55200195 C25.31918094 12.2792951 25.63190984 13.44419773 26 16 C26.66 15.7525 27.32 15.505 28 15.25 C34.96964038 14.66919663 41.88013002 20.74728507 47.484375 24.4140625 C49.6157367 25.75774705 51.72433155 26.92596957 54 28 C53.505 30.475 53.505 30.475 53 33 C46.34782462 32.6304347 41.76472848 29.95582287 36.125 26.5625 C35.25875 26.05912109 34.3925 25.55574219 33.5 25.03710938 C27.14277463 21.28554926 27.14277463 21.28554926 26 19 C24.66778273 18.44415425 23.30672027 17.9571687 21.9375 17.5 C16.76151601 15.51386661 12.14803657 12.88908704 7.4375 10 C6.72263428 9.57267578 6.00776855 9.14535156 5.27124023 8.70507812 C4.60294189 8.28677734 3.93464355 7.86847656 3.24609375 7.4375 C2.64466553 7.06496094 2.0432373 6.69242187 1.42358398 6.30859375 C-0.38226229 4.64861501 -0.70440877 3.40656168 -1 1 C-0.67 0.67 -0.34 0.34 0 0 Z " fill="#DCDCDC" transform="translate(139,414)"/>
<path d="M0 0 C5.6331547 0.90279698 9.85560422 3.43957483 14.75 6.25 C15.62527344 6.72824219 16.50054687 7.20648438 17.40234375 7.69921875 C18.23378906 8.17488281 19.06523437 8.65054687 19.921875 9.140625 C20.68081055 9.56891602 21.43974609 9.99720703 22.22167969 10.43847656 C24.52345497 12.45964003 24.68481649 14.01517452 25 17 C23.45703125 17.7265625 23.45703125 17.7265625 21 18 C18.42649203 16.89077992 16.1123601 15.74748337 13.6875 14.375 C12.68481079 13.82392578 12.68481079 13.82392578 11.66186523 13.26171875 C7.2132004 10.78268763 3.01948963 8.13716264 -1 5 C-0.67 3.35 -0.34 1.7 0 0 Z " fill="#DCDCDC" transform="translate(172,356)"/>
<path d="M0 0 C0.33 1.32 0.66 2.64 1 4 C2.32 4 3.64 4 5 4 C7.25 6.5 7.25 6.5 9 9 C7.74821404 11.50357192 6.00018842 13.06433379 4 15 C1.08447373 11.08705685 -1.44298069 7.67105792 -3 3 C-2.01 2.67 -1.02 2.34 0 2 C0 1.34 0 0.68 0 0 Z " fill="#DCDCDE" transform="translate(321,272)"/>
<path d="M0 0 C2.5 1.1875 2.5 1.1875 4.5 3.1875 C-2.25 7.1875 -2.25 7.1875 -4.5 7.1875 C-5.16 7.8475 -5.82 8.5075 -6.5 9.1875 C-6.83 7.5375 -7.16 5.8875 -7.5 4.1875 C-6.84 4.1875 -6.18 4.1875 -5.5 4.1875 C-5.37625 3.548125 -5.2525 2.90875 -5.125 2.25 C-4.91875 1.569375 -4.7125 0.88875 -4.5 0.1875 C-2.5 -0.8125 -2.5 -0.8125 0 0 Z " fill="#DDDDDD" transform="translate(249.5,384.8125)"/>
<path d="M0 0 C0.86625 0.5259375 0.86625 0.5259375 1.75 1.0625 C4.35801776 2.14917407 5.39417629 1.93065133 8 1 C8.28875 1.61875 8.5775 2.2375 8.875 2.875 C9.93720042 5.13325765 9.93720042 5.13325765 12 7 C11.195625 7.12375 10.39125 7.2475 9.5625 7.375 C8.2940625 7.684375 8.2940625 7.684375 7 8 C6.67 8.66 6.34 9.32 6 10 C6 8.68 6 7.36 6 6 C5.071875 5.9071875 5.071875 5.9071875 4.125 5.8125 C2 5 2 5 0.75 2.4375 C0.5025 1.633125 0.255 0.82875 0 0 Z " fill="#DDDDDE" transform="translate(353,321)"/>
<path d="M0 0 C-0.25 1.875 -0.25 1.875 -1 4 C-3.58152302 5.72101535 -4.84918025 6 -8 6 C-8.33 5.01 -8.66 4.02 -9 3 C-8.34 2.34 -7.68 1.68 -7 1 C-7.33 0.34 -7.66 -0.32 -8 -1 C-4.37673261 -2.2077558 -3.35853631 -1.54311128 0 0 Z " fill="#E2E2E2" transform="translate(228,128)"/>
<path d="M0 0 C5.53846154 0.61538462 5.53846154 0.61538462 7.875 2.5625 C8.431875 3.2740625 8.431875 3.2740625 9 4 C8.05125 4.12375 7.1025 4.2475 6.125 4.375 C2.91332809 4.71687177 2.91332809 4.71687177 1 7 C0.34 6.34 -0.32 5.68 -1 5 C-0.625 2.375 -0.625 2.375 0 0 Z " fill="#DFDFDF" transform="translate(195,445)"/>
<path d="M0 0 C3 0 3 0 5 1 C4.67 1.66 4.34 2.32 4 3 C4.66 3.33 5.32 3.66 6 4 C5.030625 4.12375 4.06125 4.2475 3.0625 4.375 C1.5465625 4.684375 1.5465625 4.684375 0 5 C-0.33 5.66 -0.66 6.32 -1 7 C-1.103125 6.360625 -1.20625 5.72125 -1.3125 5.0625 C-1.539375 4.381875 -1.76625 3.70125 -2 3 C-2.99 2.67 -3.98 2.34 -5 2 C-3.68 2 -2.36 2 -1 2 C-0.67 1.34 -0.34 0.68 0 0 Z " fill="#E9E8E9" transform="translate(193,67)"/>
<path d="M0 0 C2.31 0 4.62 0 7 0 C6.34 1.65 5.68 3.3 5 5 C6.32 5.33 7.64 5.66 9 6 C7.1875 6.625 7.1875 6.625 5 7 C4.01 6.34 3.02 5.68 2 5 C2 4.34 2 3.68 2 3 C1.34 3 0.68 3 0 3 C0 2.01 0 1.02 0 0 Z " fill="#E3E3E3" transform="translate(276,441)"/>
<path d="M0 0 C0.66 0 1.32 0 2 0 C3.38232443 1.62626404 4.71937515 3.2925002 6 5 C5.01 5 4.02 5 3 5 C3 5.66 3 6.32 3 7 C2.01 7.33 1.02 7.66 0 8 C0 7.01 0 6.02 0 5 C-0.99 4.67 -1.98 4.34 -3 4 C-2.34 4 -1.68 4 -1 4 C-0.67 2.68 -0.34 1.36 0 0 Z " fill="#EBEBEB" transform="translate(275,337)"/>
<path d="M0 0 C0.33 0.99 0.66 1.98 1 3 C2.65 2.67 4.3 2.34 6 2 C5.34 2.66 4.68 3.32 4 4 C4 5.32 4 6.64 4 8 C3.34 8 2.68 8 2 8 C1.67 7.34 1.34 6.68 1 6 C-1.01669827 4.86649466 -1.01669827 4.86649466 -3 4 C-2.34 4 -1.68 4 -1 4 C-0.67 2.68 -0.34 1.36 0 0 Z " fill="#EDEDED" transform="translate(164,427)"/>
<path d="M0 0 C0.33 1.32 0.66 2.64 1 4 C2.32 4.33 3.64 4.66 5 5 C4.195625 5.12375 3.39125 5.2475 2.5625 5.375 C1.2940625 5.684375 1.2940625 5.684375 0 6 C-0.33 6.66 -0.66 7.32 -1 8 C-1.66 6.35 -2.32 4.7 -3 3 C-2.01 2.67 -1.02 2.34 0 2 C0 1.34 0 0.68 0 0 Z " fill="#EEEEF0" transform="translate(321,272)"/>
<path d="M0 0 C1.5 1.1875 1.5 1.1875 3 3 C3.1875 5.6875 3.1875 5.6875 3 8 C2.67 7.34 2.34 6.68 2 6 C-0.52733235 5.34444881 -0.52733235 5.34444881 -3 5 C-2.34 4.67 -1.68 4.34 -1 4 C-0.34786708 1.97536745 -0.34786708 1.97536745 0 0 Z " fill="#EEEEF0" transform="translate(299,157)"/>
<path d="M0 0 C0.33 0.66 0.66 1.32 1 2 C1.66 2 2.32 2 3 2 C3 3.65 3 5.3 3 7 C1.68 6.67 0.36 6.34 -1 6 C-0.67 4.02 -0.34 2.04 0 0 Z " fill="#EDECF0" transform="translate(192,168)"/>
<path d="M0 0 C2 2 2 2 2 5 C0.68 5.33 -0.64 5.66 -2 6 C-2 5.01 -2 4.02 -2 3 C-2.66 2.67 -3.32 2.34 -4 2 C-2.68 2 -1.36 2 0 2 C0 1.34 0 0.68 0 0 Z " fill="#F2F2F2" transform="translate(305,427)"/>
<path d="M0 0 C0.99 0.33 1.98 0.66 3 1 C3 2.32 3 3.64 3 5 C2.34 5 1.68 5 1 5 C0.34 5.66 -0.32 6.32 -1 7 C-1.33 5.35 -1.66 3.7 -2 2 C-1.34 2 -0.68 2 0 2 C0 1.34 0 0.68 0 0 Z " fill="#F3F3F3" transform="translate(244,387)"/>
<path d="M0 0 C0.144375 0.61875 0.28875 1.2375 0.4375 1.875 C0.93152225 4.03258322 0.93152225 4.03258322 2 6 C1.01 6 0.02 6 -1 6 C-1.33 6.66 -1.66 7.32 -2 8 C-2 6.68 -2 5.36 -2 4 C-2.99 3.67 -3.98 3.34 -5 3 C-3.68 3 -2.36 3 -1 3 C-0.67 2.01 -0.34 1.02 0 0 Z " fill="#F3F3F4" transform="translate(166,82)"/>
<path d="M0 0 C1.65 1.32 3.3 2.64 5 4 C4.195625 4.12375 3.39125 4.2475 2.5625 4.375 C1.2940625 4.684375 1.2940625 4.684375 0 5 C-0.33 5.66 -0.66 6.32 -1 7 C-0.67 4.69 -0.34 2.38 0 0 Z " fill="#ECECEE" transform="translate(360,324)"/>
<path d="M0 0 C1.32 0.33 2.64 0.66 4 1 C3.67 1.66 3.34 2.32 3 3 C2.34 3 1.68 3 1 3 C0.67 3.66 0.34 4.32 0 5 C-0.66 4.67 -1.32 4.34 -2 4 C-1.34 2.68 -0.68 1.36 0 0 Z " fill="#EDEDED" transform="translate(272,143)"/>
</svg>
